<?xml version="1.0" encoding="UTF-8"?>
<svg width="21px" height="18px" viewBox="0 0 21 18" version="1.1" xmlns="http://www.w3.org/2000/svg" xmlns:xlink="http://www.w3.org/1999/xlink">
    <!-- Generator: sketchtool 58 (101010) - https://sketch.com -->
    <title>EF77EECB-9C81-4E07-97CE-A9A41F4BE10B</title>
    <desc>Created with sketchtool.</desc>
    <defs>
        <path d="M2.39765618,17.2360217 L4.16608107,17.2360217 L4.16608107,16.7879105 L2.39765618,16.7879105 L2.39765618,17.2360217 Z M14.4772314,3.03879545 L14.5582863,3.07883439 L21.9171473,7.45752872 C22.1570952,7.60087614 22.2572338,7.89925601 22.1675007,8.15934105 L22.1248528,8.25470027 L15.7681416,19.6024448 C15.6629143,19.7895411 15.4719831,19.8942181 15.2761511,19.8942592 C15.1800878,19.8942592 15.0829089,19.8691268 14.9940573,19.8161518 C14.8511378,19.7310632 14.8022495,19.5426528 14.8848058,19.3953904 C14.9510602,19.2771558 15.0818908,19.221405 15.2047843,19.2479216 L15.2652339,19.2681271 L21.5914247,7.97504139 L14.2862332,3.62829634 L13.8254403,4.45068237 C14.0811624,4.6571156 14.2573265,4.96353149 14.2973719,5.31243216 L14.3060355,5.4643945 L14.3060355,8.42820377 L18.6036617,10.9856247 C18.7465812,11.0706722 18.7955492,11.2590416 18.7130328,11.406345 C18.6576898,11.5051496 18.5572437,11.5603833 18.4539687,11.5603833 C18.4201812,11.5603833 18.386075,11.5544698 18.3531493,11.5422291 L18.3048336,11.519071 L14.3060355,9.13946543 L14.3060355,10.0925643 L17.9044438,12.2340696 C18.0473633,12.3191171 18.0963313,12.5074865 18.0138149,12.6547899 C17.9584719,12.7535945 17.857986,12.8088282 17.7547508,12.8088282 C17.7209368,12.8088282 17.6868394,12.8029147 17.6539107,12.790674 L17.6055758,12.7675159 L14.3060355,10.8039491 L14.3060355,11.757048 L17.2051063,13.4820628 C17.3480259,13.5670693 17.3969938,13.7554386 17.3144774,13.9027831 C17.2591345,14.0015877 17.1586884,14.0568214 17.0554134,14.0568214 C17.0216259,14.0568214 16.9875374,14.0509079 16.9546117,14.0386672 L16.9062782,14.0155091 L14.3060355,12.4683507 L14.3060355,13.4214906 L16.5058486,14.7305077 C16.6487681,14.8155552 16.6977361,15.0039246 16.6152197,15.151228 C16.5598767,15.2500326 16.4594306,15.3052663 16.3561556,15.3052663 C16.3223681,15.3052663 16.2882619,15.2993528 16.2553362,15.2871121 L16.2070205,15.263954 L14.3060355,14.1327933 L14.3060355,19.7125014 C14.3060355,20.3781157 13.8133544,20.9272938 13.1840688,20.993341 L13.0564958,21 L4.23250055,21 C3.58658362,21 3.05356768,20.4923868 2.9894638,19.8439564 L2.98300067,19.7125014 L2.98300067,17.8520101 L2.22788199,17.8520101 C2.01814451,17.8520101 1.84319406,17.6957122 1.80690554,17.4901776 L1.8,17.4110032 L1.8,16.6128872 C1.8,16.3967527 1.95164628,16.2164399 2.15106396,16.1790098 L2.22788199,16.1718803 L4.33585523,16.1718803 C4.54559271,16.1718803 4.72057463,16.3281782 4.75687016,16.533684 L4.76377706,16.6128461 L4.76377706,17.4109622 C4.76377706,17.6271331 4.61206782,17.80745 4.41266413,17.8448517 L4.33585523,17.851969 L3.58065686,17.851969 L3.58065686,19.7124603 C3.58065686,20.0490889 3.82232071,20.3286324 4.13630499,20.3766764 L4.23250055,20.3839702 L13.0564958,20.3839702 C13.3832507,20.3839702 13.6546196,20.1350293 13.7012589,19.8115619 L13.7083395,19.7124603 L13.7083395,5.46435343 C13.7083395,5.12776226 13.4666756,4.84825609 13.1526914,4.80021854 L13.0564958,4.79292571 L8.05319706,4.79292571 C7.88816426,4.79292571 7.75436896,4.65506743 7.75436896,4.48489028 C7.75436896,4.33905935 7.85266755,4.21694272 7.98468022,4.1850284 L8.05319706,4.17689591 L13.0565356,4.17689591 L13.1682027,4.18220368 L13.2771505,4.19742887 L13.7842817,3.29229502 C13.8594668,3.15743455 13.9817074,3.06056006 14.1280535,3.02011013 C14.2450666,2.9878159 14.3662872,2.99468212 14.4772314,3.03879545 Z M2.227882,11.1393757 L4.33585531,11.1393757 C4.5455928,11.1393757 4.72057473,11.2956736 4.75687026,11.5012082 L4.76377716,11.5803825 L4.76377716,12.3785397 C4.76377716,12.5946741 4.61206791,12.774987 4.41266422,12.8123882 L4.33585531,12.8195055 L3.58069676,12.8195055 L3.58069676,15.2528663 C3.58069676,15.4230024 3.44690146,15.5608606 3.28186866,15.5608606 C3.14041197,15.5608606 3.02190528,15.459577 2.9909331,15.3234977 L2.98304055,15.2528663 L2.98304055,12.8195055 L2.227882,12.8195055 C2.01814452,12.8195055 1.84319407,12.6632076 1.80690554,12.4577018 L1.8,12.3785397 L1.8,11.5803825 C1.8,11.3642116 1.95164629,11.1838947 2.15106397,11.146493 L2.227882,11.1393757 L4.33585531,11.1393757 Z M4.16608107,11.7553644 L2.39765618,11.7553644 L2.39765618,12.2034757 L4.16608107,12.2034757 L4.16608107,11.7553644 Z M6.85828289,4.17689588 C7.02331568,4.17689588 7.15711098,4.31475416 7.15711098,4.48489024 C7.15711098,4.63075638 7.05881239,4.75287803 6.92679973,4.78479307 L6.85828289,4.79292567 L4.23250044,4.79292567 C3.90574552,4.79292567 3.63437669,5.04183263 3.58773736,5.36526297 L3.58065678,5.46435339 L3.58065678,6.10682963 L4.33585512,6.10682963 C4.54559259,6.10682963 4.72057451,6.26312752 4.75687003,6.46869098 L4.76377693,6.54787756 L4.76377693,7.34599362 C4.76377693,7.5621646 4.6120677,7.74248148 4.41266402,7.77988313 L4.33585512,7.78700049 L3.58065678,7.78700049 L3.58065678,10.070019 C3.58065678,10.2401961 3.44686149,10.3780544 3.2818287,10.3780544 C3.14037202,10.3780544 3.02186534,10.2767708 2.99089316,10.1406656 L2.98300062,10.070019 L2.98300062,7.78700049 L2.22788197,7.78700049 C2.0181445,7.78700049 1.84319406,7.6307026 1.80690554,7.42516797 L1.8,7.34599362 L1.8,6.54787756 C1.8,6.33167008 1.95164628,6.15134914 2.15106394,6.11394705 L2.22788197,6.10682963 L2.98300062,6.10682963 L2.98300062,5.46435339 C2.98300062,4.79881607 3.47564673,4.24960677 4.1049279,4.18355537 L4.23250044,4.17689588 L6.85828289,4.17689588 Z M10.8459649,7.01931438 C11.1293337,7.01931438 11.3598696,7.25692177 11.3598696,7.54898256 L11.3598696,7.54898256 L11.3598696,9.14969088 C11.3598696,9.44175167 11.1293337,9.67935905 10.8459649,9.67935905 L10.8459649,9.67935905 L6.44299171,9.67935905 C6.15958313,9.67935905 5.9290472,9.44175167 5.9290472,9.14969088 L5.9290472,9.14969088 L5.9290472,7.54898256 C5.9290472,7.25692177 6.15958313,7.01931438 6.44299171,7.01931438 L6.44299171,7.01931438 Z M10.7622531,7.63530314 L6.52674326,7.63530314 L6.52674326,9.0633703 L10.7622531,9.0633703 L10.7622531,7.63530314 Z M15.6299804,5.8807073 L15.6932752,5.90897418 L18.9712202,7.85952295 C19.1141397,7.94457046 19.1631077,8.13293981 19.0805913,8.28024324 C19.0252483,8.37908889 18.9248022,8.43432255 18.8215272,8.43432255 C18.7877397,8.43432255 18.7536335,8.42840906 18.7207078,8.41616837 L18.6723921,8.39301024 L15.3944471,6.44246146 C15.2515276,6.35741396 15.2025596,6.16900354 15.285076,6.02170011 C15.3558043,5.89540483 15.5001542,5.84031281 15.6299804,5.8807073 Z M4.16608107,6.72285955 L2.39765618,6.72285955 L2.39765618,7.1710119 L4.16608107,7.1710119 L4.16608107,6.72285955 Z" id="path-1"></path>
    </defs>
    <g id="Code-Results" stroke="none" stroke-width="1" fill="none" fill-rule="evenodd">
        <g id="Page-/-Code-Result-(Codes)" transform="translate(-1100.000000, -141.000000)">
            <g id="Header" transform="translate(32.000000, 95.000000)">
                <g id="Button" transform="translate(890.000000, 30.000000)">
                    <g id="Icon">
                        <g transform="translate(176.333333, 13.000000)">
                            <mask id="mask-2" fill="white">
                                <use xlink:href="#path-1"></use>
                            </mask>
                            <use fill="#0A090B" xlink:href="#path-1"></use>
                            <g id="Color" mask="url(#mask-2)" fill="white" fill-rule="nonzero">
                                <rect x="0" y="0" width="24" height="24"></rect>
                            </g>
                        </g>
                    </g>
                </g>
            </g>
        </g>
    </g>
</svg>
