<?xml version="1.0" encoding="UTF-8"?>
<svg width="50px" height="50px" viewBox="0 0 50 50" version="1.1" xmlns="http://www.w3.org/2000/svg" xmlns:xlink="http://www.w3.org/1999/xlink">
    <!-- Generator: sketchtool 52.6 (67491) - http://www.bohemiancoding.com/sketch -->
    <title>41635637-B166-4233-8B0C-CFC645FC49E8</title>
    <desc>Created with sketchtool.</desc>
    <g id="Overview" stroke="none" stroke-width="1" fill="none" fill-rule="evenodd">
        <g id="Dashboard" transform="translate(-62.000000, -679.000000)" fill="#121C4D">
            <g id="Row" transform="translate(32.000000, 679.000000)">
                <g id="Recent-Activity">
                    <g id="Icon" transform="translate(13.000000, 0.000000)">
                        <path d="M52.6108395,44.1666993 L48.3166989,44.1666993 L50.2499997,40.0775392 C50.4469723,39.6614259 50.2694333,39.1644532 49.85332,38.9674806 C49.4373044,38.7705079 48.9403317,38.9481446 48.7433591,39.3641603 L46.4724607,44.1666993 L39.4583006,44.1666993 L44.1941404,34.1666994 L57.3499996,34.1666994 L52.6108395,44.1666993 Z M32.5275389,34.1666994 L42.3499998,34.1666994 L37.61416,44.1666993 L27.7916991,44.1666993 L32.5275389,34.1666994 Z M41.166699,30.0000002 L42.3516599,32.5000002 L32.53916,32.5000002 L31.4166991,30.0000002 L41.166699,30.0000002 Z M36.8241209,20.0000003 L26.9166991,20.0000003 L25.7916991,17.5000003 L35.641699,17.5000003 L36.8241209,20.0000003 Z M27.790039,11.6666996 L36.166699,11.6666996 C36.6269529,11.6666996 36.9999998,11.293555 36.9999998,10.8333011 C36.9999998,10.3731449 36.6269529,10.0000004 36.166699,10.0000004 L28.5833007,10.0000004 L30.5566405,5.83330119 L48.1833005,5.83330119 L46.2499997,9.92246131 C46.0535154,10.3383793 46.2310544,10.834766 46.6466794,11.031641 C46.7576169,11.0862308 46.8796872,11.1147465 47.00332,11.1150394 C47.3242185,11.1137699 47.6160153,10.9284183 47.75332,10.6383793 L50.0275388,5.83330119 L55.3749996,5.83330119 L50.6391598,15.8333011 L25.8166991,15.8333011 L27.790039,11.6666996 Z M62.8333004,32.5000002 C63.2935543,32.5000002 63.6666988,32.8731447 63.6666988,33.3333009 C63.6666988,33.7935548 63.2935543,34.1666994 62.8333004,34.1666994 L59.1941402,34.1666994 L53.8916989,45.3566407 C53.7542965,45.6466797 53.4625973,45.8321289 53.1416989,45.8333008 L26.4749999,45.8333008 C26.1893554,45.8333985 25.9235351,45.6871094 25.770703,45.4457032 C25.617871,45.2043946 25.599414,44.9015625 25.7216796,44.6433594 L30.6833007,34.1666994 L28.6666991,34.1666994 C28.2064452,34.1666994 27.8333007,33.7935548 27.8333007,33.3333009 C27.8333007,32.8731447 28.2064452,32.5000002 28.6666991,32.5000002 L30.7108397,32.5000002 L28.6174804,27.8416994 C28.4356444,27.4233401 28.6240233,26.9365236 29.040039,26.7494143 C29.4561522,26.5624026 29.9453124,26.7446291 30.1374999,27.158301 L30.6666991,28.333301 L41.691699,28.333301 C41.7363279,28.339551 41.7803709,28.3496096 41.8233396,28.3633791 C41.8798826,28.3689455 41.9356443,28.3800783 41.9900388,28.3966799 C42.0828123,28.4474611 42.172949,28.5031252 42.2599607,28.5633791 C42.3019529,28.608301 42.338867,28.6578127 42.3700193,28.71084 C42.3972654,28.7416018 42.4220701,28.7745119 42.4441404,28.8091799 L44.1941404,32.5000002 L57.3749996,32.5000002 L56.2499996,30.0000002 L47.8333005,30.0000002 C47.3731443,30.0000002 46.9999997,29.6269533 46.9999997,29.1666994 C46.9999997,28.7064455 47.3731443,28.333301 47.8333005,28.333301 L55.4999996,28.333301 L50.6275388,17.5000003 L37.4841795,17.5000003 L38.9025389,20.4750003 C38.9025389,20.4808596 38.9025389,20.4866214 38.9025389,20.4924807 C38.9203123,20.5436526 38.9333982,20.596387 38.941699,20.6500003 C38.9583982,20.7042971 38.9696287,20.7601565 38.9749998,20.8166995 C38.9749998,20.8224612 38.9749998,20.8275393 38.9749998,20.833301 C38.970117,20.8752932 38.9620115,20.9167971 38.9508787,20.9575198 C38.9455076,21.0186526 38.9332029,21.0791018 38.91416,21.1375003 C38.8916014,21.187305 38.8636717,21.2345706 38.8308592,21.2783206 C38.7806639,21.3840823 38.6960936,21.4696292 38.5908201,21.520801 C38.5620115,21.5464846 38.5310545,21.5696292 38.4983396,21.5900393 C38.4933592,21.5904299 38.4882811,21.5904299 38.4833006,21.5900393 C38.3776365,21.6393557 38.2624998,21.6655276 38.1458006,21.6666995 L27.6666991,21.6666995 L28.2599608,22.9916995 C28.4417968,23.4100588 28.2535155,23.8968752 27.8374022,24.083887 C27.4213866,24.2709963 26.9322265,24.0886721 26.740039,23.6750002 L23.9608398,17.5000003 L21.1666992,17.5000003 C20.7064453,17.5000003 20.3333008,17.1269534 20.3333008,16.6666995 C20.3333008,16.2064456 20.7064453,15.8333011 21.1666992,15.8333011 L23.9724609,15.8333011 L26.4849609,10.52168 L26.4999999,10.4908207 L29.2749999,4.64335979 C29.4124022,4.35332073 29.7041014,4.16787151 30.0249999,4.16669964 L56.6916989,4.16669964 C56.9773434,4.16660198 57.2431637,4.31289104 57.3959957,4.55429729 C57.5487301,4.79560588 57.5672848,5.09843791 57.4450192,5.35664103 L52.4833005,15.8333011 L55.3333004,15.8333011 C55.7935543,15.8333011 56.1666989,16.2064456 56.1666989,16.6666995 C56.1666989,17.1269534 55.7935543,17.5000003 55.3333004,17.5000003 L52.455859,17.5000003 L59.205859,32.5000002 L62.8333004,32.5000002 Z M58.1391598,48.3333008 L65.2499996,33.3250002 L57.905859,17.0083011 C57.9054684,17.0033206 57.9054684,16.9983401 57.905859,16.9933597 C57.8831051,16.9312503 57.8682613,16.8666019 57.8616207,16.8008792 C57.8503902,16.7601566 57.8423824,16.7186526 57.8374996,16.6766605 C57.8412106,16.6371097 57.8479488,16.5977542 57.8575192,16.55918 C57.8625973,16.4905277 57.8762692,16.4227542 57.8983395,16.3575198 C57.8983395,16.3533206 57.8983395,16.3483402 57.8983395,16.3433597 L64.0783199,1.66669966 L25.0533202,1.66669966 L18.7391601,16.6583011 L26.090039,32.9916994 C26.0974609,33.0016603 26.0974609,33.0133791 26.0974609,33.02334 C26.1167968,33.0791994 26.1299804,33.1371095 26.1367187,33.1958009 C26.1483398,33.2436525 26.155664,33.2924806 26.1583007,33.3416994 C26.1547851,33.3898439 26.1466796,33.4375002 26.1341796,33.4841798 C26.1261718,33.5436525 26.111621,33.6020509 26.0908202,33.6583009 C26.0833007,33.6691408 26.0883788,33.6799806 26.0833007,33.6900392 L19.15,48.3333008 L58.1391598,48.3333008 Z M66.9733394,33.1958009 C66.9838863,33.2437502 66.9900386,33.2925783 66.9916988,33.3416994 C66.9880855,33.3898439 66.97998,33.4375002 66.96748,33.4841798 C66.9594722,33.5436525 66.9449214,33.6020509 66.9242183,33.6583009 C66.9166988,33.6691408 66.9216792,33.6799806 66.9166988,33.6900392 L59.4166988,49.5233398 C59.2792965,49.8133789 58.9875973,49.9988281 58.6666988,50 L17.8333008,50 C17.5482422,49.9989258 17.2834961,49.8521484 17.1314453,49.6110352 C16.9794922,49.3698242 16.9613281,49.0676758 17.0833008,48.8099609 L24.4166992,33.3250002 L17.0683594,17.0083011 C17.0679687,17.0033206 17.0679687,16.9983401 17.0683594,16.9933597 C17.0456055,16.9312503 17.0307617,16.8666019 17.0241211,16.8008792 C17.0128906,16.7601566 17.0048828,16.7186526 17,16.6766605 C17.0050781,16.6369144 17.0131836,16.5976566 17.0241211,16.55918 C17.0291992,16.4905277 17.0429687,16.4227542 17.0650391,16.3575198 C17.0650391,16.3533206 17.0650391,16.3483402 17.0650391,16.3433597 L23.7316406,0.509961392 C23.8618163,0.200879363 24.1645507,-9.71971566e-05 24.4999999,4.59092542e-07 L65.3333003,4.59092542e-07 C65.6129878,-0.000292509655 65.8742183,0.139648895 66.0288081,0.372656706 C66.183398,0.605762172 66.2107417,0.900781701 66.1016597,1.15830123 L59.5758785,16.6583011 L66.9266597,32.9916994 C66.9341792,33.0016603 66.92998,33.0133791 66.9341792,33.02334 C66.9535152,33.0791994 66.9666011,33.1371095 66.9733394,33.1958009 Z" id="Fill-4"></path>
                    </g>
                </g>
            </g>
        </g>
    </g>
</svg>