<?xml version="1.0" encoding="UTF-8"?>
<svg width="63px" height="50px" viewBox="0 0 63 50" version="1.1" xmlns="http://www.w3.org/2000/svg" xmlns:xlink="http://www.w3.org/1999/xlink">
    <!-- Generator: sketchtool 52.6 (67491) - http://www.bohemiancoding.com/sketch -->
    <title>D4E61200-D1B8-43AA-AEA9-205A84C1EFF8</title>
    <desc>Created with sketchtool.</desc>
    <g id="Overview" stroke="none" stroke-width="1" fill="none" fill-rule="evenodd">
        <g id="Dashboard" transform="translate(-752.000000, -679.000000)" fill="#121C4D">
            <g id="Row" transform="translate(32.000000, 679.000000)">
                <g id="Recent-Projects" transform="translate(700.000000, 0.000000)">
                    <g id="Icon" transform="translate(13.000000, 0.000000)">
                        <path d="M67.540852,30.1311279 L38.1925177,47.733935 L38.1925177,44.7330384 L67.540852,27.1303527 L67.540852,30.1311279 Z M37.3663634,43.320816 L9.4319516,27.1037574 L24.7011733,17.9456247 C24.8972984,17.9910431 25.1032602,17.9628691 25.2798335,17.8663245 L25.3445609,17.8296498 L25.3445609,26.2241696 C25.3445609,26.516475 25.5004895,26.7866783 25.7536913,26.9327703 L30.5056271,29.6762147 L30.5057485,29.6763362 L38.4200957,34.2455052 L38.4231317,34.2467196 C38.4686716,34.2708861 38.5163974,34.2905593 38.5657019,34.3056179 C38.5842822,34.3119327 38.6015266,34.3227409 38.6203498,34.3277199 C38.6667398,34.3379208 38.7138584,34.3439928 38.7612199,34.3460573 C38.7840505,34.3480003 38.806274,34.3550438 38.8292261,34.3550438 L38.8299547,34.3550438 C38.973375,34.3551653 39.1141237,34.3173975 39.238235,34.2455052 L49.1179625,28.5411178 C49.1399431,28.5237519 49.1608307,28.5052931 49.1808683,28.4857413 C49.235759,28.4483379 49.2857922,28.4041338 49.3298748,28.3543435 C49.3924162,28.2711573 49.443178,28.1797132 49.4805815,28.0826829 C49.4919968,28.0427292 49.5002547,28.001804 49.5052337,27.9605145 C49.5174991,27.9186178 49.5261214,27.8757496 49.5311004,27.8323956 L49.5311004,21.7368509 L49.6480468,21.6693305 C49.6774352,21.7001761 49.7094953,21.7284716 49.7436199,21.7540954 L50.1430351,21.9856809 C50.4817304,22.1832633 50.9130843,22.1120996 51.170415,21.8162725 C51.4277458,21.5205668 51.4385539,21.0836267 51.1961602,20.7754128 L53.1750203,19.632908 C53.3630089,19.5244623 53.5002358,19.3457031 53.5564624,19.1360981 C53.6125675,18.9264932 53.5831791,18.7030441 53.474612,18.5151769 L53.4682972,18.508012 L53.024435,17.7265474 L66.7530726,25.6944496 L37.3663634,43.320816 Z M36.5562391,47.7590731 L8.63615719,31.5501509 L8.63615719,28.5338314 L36.5562391,44.742875 L36.5562391,47.7590731 Z M33.2637657,25.8198968 L33.2637657,29.3789303 L31.7328967,28.495335 L31.7328967,24.93618 L33.2637657,25.8198968 Z M34.490914,24.6390171 L31.3238878,22.8109852 C31.070686,22.6648932 30.7588288,22.6648932 30.5057485,22.8111066 C30.2525467,22.95732 30.0966181,23.2274019 30.0967396,23.5197073 L30.0967396,27.550777 L26.9808395,25.752012 L26.9808395,16.9018504 L32.2978343,13.8868667 L38.0412038,23.6347107 C38.0262668,23.683408 38.0161873,23.7334412 38.0110868,23.784203 L38.0110868,32.1195817 L34.8999229,30.3234884 L34.8999229,25.3477392 C34.9000443,25.0553124 34.7441158,24.7852305 34.490914,24.6390171 Z M23.5653477,13.123011 L32.3041491,7.66223162 L41.7908977,24.3570341 L40.7553813,25.0177875 L33.2988618,12.3632842 C33.0721339,11.9786846 32.5790886,11.8469225 32.1907244,12.0668498 L25.1896038,16.0368353 L23.5653477,13.123011 Z M47.8948218,22.6816519 L47.8948218,27.3576878 L39.6473654,32.1197031 L39.6473654,26.3605464 L39.7759701,26.578895 C39.8886661,26.7701625 40.074226,26.9073894 40.2901458,26.9591227 C40.5060656,27.0107346 40.733765,26.9724811 40.9207822,26.8529844 L43.306951,25.3306162 L47.8948218,22.6816519 Z M42.1717326,1.93185611 L51.6520449,18.6225296 L43.1903689,23.5081705 L33.7068992,6.81895429 L42.1717326,1.93185611 Z M69.1008665,25.3450675 C69.1066956,25.3580616 69.1119175,25.3705699 69.1171394,25.3838068 C69.1566073,25.4769511 69.1782236,25.5765316 69.1811382,25.6776909 C69.1812596,25.6886205 69.177495,25.6990643 69.1771306,25.7098724 L69.1771306,30.5904129 C69.1771306,30.6138507 69.1657153,30.633524 69.1637723,30.6564761 C69.1591576,30.7276397 69.1450706,30.7979533 69.1217541,30.8653524 C69.068685,31.0003933 68.9827057,31.1200114 68.8717098,31.2133986 C68.8446287,31.2423012 68.8153618,31.2691394 68.7840303,31.2934273 L37.7938311,49.8808676 C37.776951,49.8909471 37.7577636,49.8948332 37.7403977,49.9036983 C37.7083376,49.9200927 37.6750631,49.9343011 37.64106,49.9462022 C37.5678319,49.9723117 37.4912034,49.9877346 37.4136034,49.991985 C37.3997593,49.9927136 37.3882225,50 37.374257,50 C37.3633274,50 37.3543408,49.9941709 37.3435327,49.9938066 C37.2605894,49.9899205 37.178739,49.9734047 37.1007747,49.9448664 C37.0728436,49.9350298 37.0455197,49.9237359 37.0188029,49.9108633 C37.0002227,49.9018767 36.9800637,49.8977478 36.9620906,49.887304 L7.41143773,32.7315164 C7.39079298,32.7196153 7.37913477,32.6993348 7.3599473,32.685855 C7.299106,32.6452942 7.24409381,32.5965968 7.19661089,32.5410989 C7.17548038,32.513775 7.15617146,32.4851152 7.13892703,32.4553625 C7.10115928,32.3980429 7.07104223,32.3361087 7.04942596,32.2711384 C7.03861783,32.2328849 7.03084569,32.1937813 7.02586666,32.1543134 C7.01360125,32.1124167 7.00497903,32.0694271 7,32.0260731 L7,27.1173586 C7,27.0973211 7.00995806,27.0805624 7.01141533,27.0608892 C7.01603004,26.9891183 7.03035993,26.918319 7.05391923,26.8503127 C7.06412017,26.8195885 7.07626414,26.7894714 7.0902297,26.7602045 C7.12666162,26.6812687 7.17560182,26.6086477 7.23510728,26.5452562 C7.24409381,26.5360268 7.25538771,26.5303191 7.26486,26.5215754 C7.30627094,26.4807717 7.35193227,26.4445827 7.40111536,26.4134941 L23.6639568,16.659821 L21.7573534,13.2405646 C21.5449553,12.8598511 21.6682166,12.3795571 22.0377576,12.1483359 L32.1603645,5.82302724 L32.17348,5.81816965 C32.1780947,5.81537654 32.1804021,5.81064039 32.1851382,5.80784728 L42.0657158,0.103459859 L42.0716663,0.101395384 L42.0721521,0.101031065 C42.0815029,0.0956877174 42.0921896,0.0962949159 42.1016619,0.0913158879 C42.1877627,0.0446830399 42.2816356,0.013837354 42.3786659,0.000357546359 C42.4322208,-0.00122116985 42.4858972,0.0024220214 42.5387234,0.0114085598 C42.588878,0.0108013613 42.6389112,0.0145659922 42.6884586,0.0229453321 C42.7750451,0.0485691105 42.8568955,0.0884013349 42.9306094,0.140863289 C42.9425105,0.148999749 42.9570832,0.151064224 42.9684986,0.159686444 C43.0514419,0.22344229 43.1212697,0.302378101 43.1742174,0.392486364 L43.1834468,0.403051619 L43.1835683,0.403294498 L43.1874544,0.407787768 L51.4209451,14.9034385 L68.7737079,24.9754051 C68.9184641,25.0617487 69.0327388,25.1909606 69.1008665,25.3450675 Z M35.607795,38.1355834 C35.9780646,38.1360691 36.3024301,37.8878464 36.3988532,37.5304493 C36.4952763,37.1729308 36.3395906,36.7953748 36.0192327,36.6096934 L35.6198175,36.3779865 C35.36698,36.2311659 35.0550014,36.2305587 34.8014353,36.3762863 C34.5479906,36.5218925 34.3914548,36.7917316 34.3908476,37.0840369 C34.3902404,37.3764638 34.5455618,37.64691 34.7985207,37.7937306 L35.1979359,38.0253161 C35.3224116,38.0976942 35.4638889,38.1357048 35.607795,38.1355834 Z M34.0227639,35.4503086 L33.6232272,35.218723 C33.3703898,35.0719024 33.0584112,35.0712952 32.8048451,35.2170229 C32.5514004,35.3626291 32.3948646,35.6324681 32.3942574,35.9247735 C32.3936502,36.2172003 32.549093,36.4876465 32.8019305,36.6343457 L33.2014671,36.8660527 C33.5923816,37.092902 34.0930775,36.9598041 34.3199269,36.5688897 C34.5467762,36.1779753 34.4136783,35.6771579 34.0227639,35.4503086 Z M32.0253236,34.2911665 L31.6259084,34.0594596 C31.3729495,33.9127604 31.0610923,33.9120318 30.8075262,34.0577594 C30.5540815,34.2033656 30.3974243,34.4732047 30.3968171,34.7656315 C30.3962099,35.0579369 30.5516527,35.3285045 30.8046116,35.4752037 L31.2040268,35.7069107 C31.5949412,35.9336386 32.0957586,35.8005407 32.322608,35.4096262 C32.5493359,35.0187118 32.4163594,34.5178945 32.0253236,34.2911665 Z M30.0288548,33.1319031 L29.6293181,32.9001961 C29.2384037,32.6733467 28.7375863,32.8064447 28.5108584,33.1973591 C28.284009,33.5882735 28.417107,34.0890909 28.8080214,34.3159402 L29.2074366,34.5475258 C29.5984724,34.7743751 30.0991684,34.6412772 30.3260177,34.2503628 C30.5527457,33.8594484 30.4197692,33.358631 30.0288548,33.1319031 Z M28.0314144,31.9725182 L27.6319992,31.7409327 C27.3790403,31.5941121 27.0670617,31.5935049 26.813617,31.7392325 C26.5600509,31.8848387 26.4035151,32.1546777 26.402908,32.4469831 C26.4023008,32.7394099 26.5577436,33.0098562 26.8107025,33.1565553 L27.2101177,33.3882623 C27.6010321,33.6151117 28.1018495,33.4820138 28.3286988,33.0910993 C28.5554268,32.7001849 28.4223289,32.1993676 28.0314144,31.9725182 Z M26.0348242,30.8132547 L25.635409,30.5815478 C25.2444946,30.3548198 24.7436772,30.4879178 24.5168278,30.8788322 C24.2900999,31.2697466 24.4231978,31.7705639 24.8141122,31.9972919 L25.2135274,32.2289988 C25.6044419,32.4558482 26.1052592,32.3227503 26.3321086,31.9318359 C26.5588365,31.5409215 26.4258601,31.0401041 26.0348242,30.8132547 Z M24.0375053,29.6539913 L23.6380901,29.4222843 C23.2470543,29.1955564 22.7463583,29.3285329 22.519509,29.7195687 C22.2926596,30.1104831 22.4257575,30.6113005 22.8166719,30.8380284 L23.2162086,31.0697354 C23.607123,31.2965848 24.1079403,31.1634868 24.3346683,30.7725724 C24.5615177,30.381658 24.4284197,29.8808406 24.0375053,29.6539913 Z M22.0409151,28.4955779 L21.6422285,28.2638709 C21.2517998,28.0366572 20.7509825,28.1690265 20.5237688,28.5594552 C20.2965551,28.9500053 20.4288029,29.4508226 20.819353,29.6780363 L21.2180396,29.9097433 C21.6085897,30.136957 22.1092856,30.0045877 22.3364993,29.6140376 C22.5638345,29.2236089 22.4314652,28.7227916 22.0409151,28.4955779 Z M20.0444463,27.3371645 L19.6449096,27.1046075 C19.2543595,26.8773938 18.7536636,27.0097631 18.5263285,27.4001917 C18.2991148,27.7907418 18.4314841,28.2915592 18.8220342,28.5187729 L19.2214494,28.7512085 C19.6119995,28.9785436 20.1128168,28.8461743 20.3400305,28.4556242 C20.5672442,28.0650741 20.4348749,27.5643782 20.0444463,27.3371645 Z M18.0461559,26.1777796 L16.4491023,25.2502231 C16.1965077,25.103524 15.8847719,25.1027953 15.6314487,25.2481587 C15.3781255,25.393522 15.2215897,25.6631181 15.2207396,25.9551806 C15.220011,26.2473646 15.3752109,26.5176894 15.6278055,26.6643885 L16.025642,26.8960955 L15.5398832,27.1876722 C15.289353,27.338136 15.1380392,27.6107682 15.1428968,27.9030736 C15.1478758,28.1953789 15.3084191,28.4626677 15.5640497,28.6045093 C15.8195588,28.7463509 16.131416,28.741129 16.3820675,28.5906652 L18.0565997,27.5863588 C18.3048224,27.4374737 18.455772,27.1684848 18.4537075,26.8790939 C18.4515216,26.5897031 18.2965645,26.3230215 18.0461559,26.1777796 Z M52.9617722,21.7293217 L52.5622355,21.4976147 C52.1713211,21.2707653 51.6705037,21.4038633 51.4437758,21.7947777 C51.2169264,22.1856921 51.3500243,22.6865095 51.7409388,22.9133588 L52.140354,23.1449443 C52.3933129,23.291765 52.7052915,23.2923722 52.9587362,23.1467659 C53.2123023,23.0010383 53.3688381,22.7311993 53.3694453,22.4388939 C53.3700525,22.1464671 53.2146096,21.8760208 52.9617722,21.7293217 Z M53.737529,24.0726223 L54.5364809,24.5359148 C54.7893183,24.6827354 55.1012969,24.6833426 55.354863,24.5377364 C55.6083077,24.3920087 55.7648435,24.1221697 55.7654507,23.8298643 C55.7660579,23.5374375 55.6106151,23.2669913 55.3577776,23.1202921 L54.5588258,22.6568782 C54.1679113,22.4300288 53.667094,22.5631267 53.4402446,22.9540411 C53.2135167,23.3449555 53.3466146,23.8457729 53.737529,24.0726223 Z M57.3550965,24.2795555 L56.9556813,24.0478486 C56.5647669,23.8209992 56.0639495,23.9540971 55.8371001,24.3450115 C55.6103722,24.735926 55.7433487,25.2367433 56.1343845,25.4635927 L56.5337997,25.6951782 C56.7867586,25.8419988 57.0986158,25.842606 57.3521819,25.6969998 C57.6056266,25.5512722 57.7621624,25.2814331 57.762891,24.9891278 C57.7634982,24.6967009 57.6080554,24.4262547 57.3550965,24.2795555 Z M60.5501752,26.1338185 L60.1514886,25.9029616 L60.6379761,25.6113848 C61.0253688,25.3788278 61.1509374,24.8761888 60.9183804,24.4887962 C60.6859448,24.1014035 60.1833058,23.9758348 59.7959132,24.2083919 L58.120531,25.2134269 C57.8723082,25.3625549 57.7213586,25.6315438 57.7234231,25.9210561 C57.725609,26.2105683 57.8805661,26.4774928 58.1308533,26.6228562 L59.728757,27.5495626 C59.9817159,27.6962617 60.2936945,27.6969904 60.5471392,27.5512627 C60.8007053,27.4056565 60.9572411,27.1358175 60.9578483,26.8433907 C60.9584555,26.5510853 60.8030127,26.2805176 60.5501752,26.1338185 Z M56.0281248,26.4693564 L55.6094007,26.7202508 C55.3574133,26.8697431 55.2046421,27.1426181 55.2088925,27.4356521 C55.2132643,27.7285647 55.3739291,27.996825 55.6302883,28.1389095 C55.8865261,28.2808725 56.1992333,28.2749219 56.4498849,28.1232438 L56.868609,27.8723493 C57.2540586,27.639428 57.3786558,27.1386106 57.1471917,26.7521894 C56.9157276,26.3658897 56.4152746,26.2393496 56.0281248,26.4693564 Z M53.9324397,27.7254073 L53.5138371,27.9770303 C53.1286303,28.2109232 53.0050047,28.7122263 53.2371974,29.098526 C53.4695116,29.4847043 53.9702075,29.6105159 54.3574787,29.3799019 L54.7760814,29.1282788 C55.1628669,28.8949931 55.287464,28.392597 55.0547855,28.0055687 C54.8219856,27.6185403 54.3198324,27.4930931 53.9324397,27.7252858 L53.9324397,27.7254073 Z M51.8407622,28.9820654 L51.4221595,29.2329598 C51.1702936,29.3825735 51.0177653,29.6553271 51.0221371,29.9482397 C51.026509,30.2410308 51.1871737,30.5091697 51.44329,30.6512542 C51.6994064,30.7932172 52.0119922,30.7873881 52.2626438,30.6359528 L52.6812464,30.3850583 C53.0668175,30.152137 53.1914146,29.6513196 52.9598291,29.2648984 C52.728365,28.8784773 52.2280334,28.7520586 51.8407622,28.9820654 Z M49.7476274,30.2372662 L49.3281746,30.4881606 C48.9402962,30.7202319 48.8139989,31.2227494 49.0460702,31.6106279 C49.2781415,31.9985063 49.7807804,32.1248036 50.1686589,31.8926109 L50.5881116,31.6418379 C50.9758686,31.4096451 51.1021659,30.9071276 50.8700946,30.5192492 C50.6380233,30.1313708 50.1353844,30.0051949 49.7476274,30.2372662 Z M47.6519423,31.4939243 L47.2333397,31.7456688 C46.8465542,31.9789545 46.7219571,32.4813506 46.9546355,32.8683789 C47.1874355,33.2554073 47.6895887,33.380733 48.0769813,33.1485403 L48.495584,32.8969172 C48.7467213,32.7464534 48.8982781,32.4733355 48.8931776,32.1806658 C48.8881986,31.8879961 48.7271695,31.6202216 48.4710532,31.4786229 C48.2149368,31.3369028 47.9025939,31.3427319 47.6519423,31.4939243 Z M45.5602648,32.7507038 L45.1416621,33.0015983 C44.8897962,33.151212 44.7372679,33.4239656 44.7416397,33.7168782 C44.7460116,34.0096693 44.9065549,34.2778082 45.1627926,34.4198926 C45.418909,34.5618556 45.7314948,34.5560265 45.9821464,34.4045912 L46.400749,34.1536968 C46.652615,34.0040831 46.8051433,33.7313295 46.8008929,33.4384169 C46.796521,33.1456258 46.6358563,32.8773655 46.3796185,32.7354024 C46.1235022,32.5934394 45.8109164,32.5992685 45.5602648,32.7507038 Z M43.4662799,34.0066333 L43.0476772,34.2575277 C42.7958113,34.4071415 42.6431616,34.679895 42.6475334,34.9728076 C42.6519052,35.2655988 42.81257,35.5337376 43.0686863,35.6758221 C43.3249241,35.8177851 43.6373885,35.811956 43.8881615,35.6605207 L44.3067641,35.4096262 C44.5585087,35.2600125 44.7111584,34.9872589 44.7067865,34.6943464 C44.7024147,34.4015552 44.54175,34.1334164 44.2856336,33.9913319 C44.0295173,33.8493689 43.7169315,33.855198 43.4662799,34.0066333 Z M41.371445,35.2625628 L40.9527208,35.5143073 C40.5660568,35.747593 40.4414597,36.249989 40.6741381,36.6370174 C40.9069381,37.0240457 41.4090913,37.1493715 41.7964839,36.9171788 L42.2150866,36.6655557 C42.4662239,36.5150919 42.6177807,36.241974 42.6126802,35.9493043 C42.6075797,35.6566346 42.4466721,35.3888601 42.1905558,35.2472614 C41.934318,35.1055412 41.6220965,35.1113703 41.371445,35.2625628 Z M39.2773386,36.5184922 L38.858736,36.7702367 C38.4720719,37.0035224 38.3473533,37.5059185 38.5801533,37.8929468 C38.8128317,38.2799752 39.3151064,38.405301 39.7023776,38.1731082 L40.1211017,37.9214852 C40.5077657,37.6881995 40.6324843,37.1858034 40.3996844,36.7987751 C40.1670059,36.4117467 39.6647313,36.2864209 39.2773386,36.5184922 Z M23.9176443,23.9343025 C24.0660436,23.9344239 24.2115284,23.8941059 24.3386758,23.8177203 L24.7573999,23.5660973 C25.0084158,23.415512 25.1599725,23.1423941 25.1549935,22.8497244 C25.149893,22.5570547 24.988864,22.2894016 24.7327476,22.1476815 C24.4766313,22.0059613 24.1642884,22.0119119 23.9136368,22.1631043 L23.4950341,22.4147274 C23.1796552,22.6042948 23.0295557,22.9808793 23.1281648,23.3353618 C23.2266524,23.6898443 23.5498034,23.9349097 23.9176443,23.9343025 Z M21.4049353,25.4411264 C21.5528489,25.4412478 21.6978479,25.4009298 21.8243881,25.3245442 L22.6617149,24.8227554 C22.9135808,24.6732631 23.0661091,24.4003881 23.0617373,24.1075969 C23.0573654,23.8146843 22.8968221,23.5465455 22.6405843,23.4045824 C22.384468,23.262498 22.0718822,23.2683271 21.8212306,23.4198838 L20.9839038,23.9215513 C20.6685249,24.1107543 20.5180611,24.487096 20.6163059,24.8415785 C20.7145506,25.196061 21.0372159,25.4413692 21.4049353,25.4411264 Z M19.3118005,26.6979059 C19.4600784,26.6979059 19.6055632,26.6575879 19.732832,26.5812023 L20.1514346,26.3295793 C20.4024505,26.1791155 20.5541287,25.9059976 20.5490283,25.6133279 C20.5439278,25.3206582 20.3830202,25.053005 20.1267824,24.9112849 C19.870666,24.7695648 19.5584446,24.7753939 19.307793,24.9265863 L18.8890689,25.1783308 C18.57369,25.3677768 18.4235905,25.7444827 18.5221995,26.0989653 C18.6208086,26.4534478 18.9438382,26.6985131 19.3118005,26.6979059 Z M39.6145767,38.6956633 L38.016673,37.7689569 C37.7588565,37.6198289 37.4404416,37.6222577 37.1849325,37.7752718 L35.5104003,38.7804282 C35.1230076,39.0128638 34.997439,39.5155028 35.229996,39.9028955 C35.4624316,40.2902881 35.9650706,40.4158568 36.3524633,40.1832997 L37.6131289,39.4267304 L38.7932799,40.1114074 C39.1841944,40.3382568 39.6850117,40.2051589 39.9117397,39.8142445 C40.138589,39.4232086 40.0054911,38.9225127 39.6145767,38.6956633 Z"></path>
                    </g>
                </g>
            </g>
        </g>
    </g>
</svg>