<?xml version="1.0" encoding="UTF-8"?>
<svg width="50px" height="50px" viewBox="0 0 50 50" version="1.1" xmlns="http://www.w3.org/2000/svg" xmlns:xlink="http://www.w3.org/1999/xlink">
    <!-- Generator: sketchtool 52.6 (67491) - http://www.bohemiancoding.com/sketch -->
    <title>1634795E-F407-4316-8D98-B604DA5C055C</title>
    <desc>Created with sketchtool.</desc>
    <g id="Overview" stroke="none" stroke-width="1" fill="none" fill-rule="evenodd">
        <g id="Dashboard" transform="translate(-60.000000, -120.000000)" fill="#121C4D">
            <g id="Header" transform="translate(45.000000, 120.000000)">
                <g id="Icon">
                    <path d="M62.4998047,0 L17.5001953,0 C16.1192383,0 15,1.11923828 15,2.50019531 L15,47.4998047 C15,48.8807617 16.1192383,50 17.5001953,50 L62.4998047,50 C63.8807617,50 65,48.8807617 65,47.4998047 L65,2.50019531 C65,1.11923828 63.8807617,0 62.4998047,0 Z M63.3333984,2.50019531 L63.3333984,18.3333984 L39.1665039,18.3333984 C38.7064453,18.3333984 38.3333984,17.9603516 38.3333984,17.4999023 L38.3333984,1.66660156 L62.4998047,1.66660156 C62.9602539,1.66660156 63.3333984,2.03974609 63.3333984,2.50019531 Z M30.8333008,1.66660156 L30.8333008,3.33330078 C30.8333008,3.79375 31.2063477,4.16679688 31.6667969,4.16679688 C32.1268555,4.16679688 32.4999023,3.79375 32.4999023,3.33330078 L32.4999023,1.66660156 L36.6666992,1.66660156 L36.6666992,17.4999023 C36.6666992,18.8808594 37.7859375,20.0000977 39.1665039,20.0000977 L63.3333984,20.0000977 L63.3333984,24.1665039 L60.0000977,24.1665039 C59.5396484,24.1665039 59.1666016,24.5399414 59.1666016,25 C59.1666016,25.4600586 59.5396484,25.8334961 60.0000977,25.8334961 L63.3333984,25.8334961 L63.3333984,29.9999023 L34.7498047,29.9999023 C35.3495117,28.6842773 35.7161133,27.2743164 35.8332031,25.8334961 C35.8351562,23.4775391 34.8390625,21.2314453 33.0919922,19.6513672 C31.3448242,18.0709961 29.0102539,17.3049805 26.6665039,17.5426758 L26.6665039,1.66660156 L30.8333008,1.66660156 Z M16.6666016,20.0000977 L21.5589844,20.0000977 C20.0254883,21.5541992 19.1660156,23.65 19.1667969,25.8334961 C19.2838867,27.2743164 19.6504883,28.6842773 20.2501953,29.9999023 L16.6666016,29.9999023 L16.6666016,20.0000977 Z M27.5,19.1666016 C31.1800781,19.1708008 34.1624023,22.153125 34.1666016,25.8334961 C33.9685547,27.4578125 33.4822266,29.034082 32.7299805,30.4874023 C32.7234375,30.5023437 32.7166016,30.515625 32.7108398,30.530957 C31.1643555,33.8207031 29.4241211,37.0163086 27.5,40.1008789 C25.5754883,37.0170898 23.8356445,33.8222656 22.2891602,30.5324219 L22.2693359,30.4859375 C21.5173828,29.0329102 21.0310547,27.4574219 20.8333984,25.8334961 C20.8375977,22.153125 23.8199219,19.1708008 27.5,19.1666016 Z M26.7984375,42.1165039 C26.9514648,42.3557617 27.2162109,42.500293 27.5,42.500293 C27.7837891,42.500293 28.0485352,42.3557617 28.2015625,42.1165039 C28.5966797,41.5008789 30.5441406,38.4334961 32.3725586,34.9998047 L33.3333984,34.9998047 C33.793457,34.9998047 34.1666016,35.3729492 34.1666016,35.8333984 L34.1666016,44.1666016 C34.1666016,44.6269531 33.793457,45.0000977 33.3333984,45.0000977 L21.6666016,45.0000977 C21.206543,45.0000977 20.8333984,44.6269531 20.8333984,44.1666016 L20.8333984,35.8333984 C20.8333984,35.3729492 21.206543,34.9998047 21.6666016,34.9998047 L22.6274414,34.9998047 C24.4558594,38.4334961 26.4033203,41.5000977 26.7984375,42.1165039 Z M17.5001953,1.66660156 L24.9998047,1.66660156 L24.9998047,17.884082 C24.6203125,18.0069336 24.2499023,18.1572266 23.8916992,18.3333984 L16.6666016,18.3333984 L16.6666016,2.50019531 C16.6666016,2.03974609 17.0397461,1.66660156 17.5001953,1.66660156 Z M62.4998047,48.3333984 L17.5001953,48.3333984 C17.0397461,48.3333984 16.6666016,47.9602539 16.6666016,47.4998047 L16.6666016,31.6666016 L20.9672852,31.6666016 C21.2175781,32.2173828 21.4876953,32.7758789 21.7665039,33.3332031 L21.6666016,33.3332031 C20.2860352,33.3332031 19.1667969,34.4524414 19.1667969,35.8333984 L19.1667969,44.1666016 C19.1667969,45.5474609 20.2860352,46.6666992 21.6666016,46.6666992 L33.3333984,46.6666992 C34.7139648,46.6666992 35.8332031,45.5474609 35.8332031,44.1666016 L35.8332031,35.8333984 C35.8332031,34.4524414 34.7139648,33.3332031 33.3333984,33.3332031 L33.2334961,33.3332031 C33.5123047,32.7758789 33.7801758,32.2173828 34.0327148,31.6666016 L63.3333984,31.6666016 L63.3333984,47.4998047 C63.3333984,47.9602539 62.9602539,48.3333984 62.4998047,48.3333984 Z M44.9999023,16.6667969 C43.6193359,16.6667969 42.5001953,15.5475586 42.5001953,14.1666016 L42.5001953,5.83339844 C42.5001953,4.45253906 43.6193359,3.33330078 44.9999023,3.33330078 L56.6667969,3.33330078 C58.0473633,3.33330078 59.1666016,4.45253906 59.1666016,5.83339844 L59.1666016,14.1666016 C59.1666016,15.5475586 58.0473633,16.6667969 56.6667969,16.6667969 L44.9999023,16.6667969 Z M44.1667969,5.83339844 L44.1667969,14.1666016 C44.1667969,14.6270508 44.5398437,15.0001953 44.9999023,15.0001953 L56.6667969,15.0001953 C57.1268555,15.0001953 57.4999023,14.6270508 57.4999023,14.1666016 L57.4999023,5.83339844 C57.4999023,5.37304687 57.1268555,4.99990234 56.6667969,4.99990234 L44.9999023,4.99990234 C44.5398437,4.99990234 44.1667969,5.37304687 44.1667969,5.83339844 Z M46.6666016,33.3332031 L41.6666016,33.3332031 C40.2861328,33.3332031 39.1665039,34.4524414 39.1665039,35.8333984 L39.1665039,44.1666016 C39.1665039,45.5474609 40.2861328,46.6666992 41.6666016,46.6666992 L46.6666016,46.6666992 C48.0474609,46.6666992 49.1666992,45.5474609 49.1666992,44.1666016 L49.1666992,35.8333984 C49.1666992,34.4524414 48.0474609,33.3332031 46.6666016,33.3332031 Z M47.5000977,44.1666016 C47.5000977,44.6269531 47.1269531,45.0000977 46.6666016,45.0000977 L41.6666016,45.0000977 C41.206543,45.0000977 40.8334961,44.6269531 40.8334961,44.1666016 L40.8334961,35.8333984 C40.8334961,35.3729492 41.206543,34.9998047 41.6666016,34.9998047 L46.6666016,34.9998047 C47.1269531,34.9998047 47.5000977,35.3729492 47.5000977,35.8333984 L47.5000977,44.1666016 Z M58.3333984,33.3332031 L54.1666016,33.3332031 C52.7861328,33.3332031 51.6665039,34.4524414 51.6665039,35.8333984 L51.6665039,44.1666016 C51.6665039,45.5474609 52.7861328,46.6666992 54.1666016,46.6666992 L58.3333984,46.6666992 C59.7139648,46.6666992 60.8332031,45.5474609 60.8332031,44.1666016 L60.8332031,35.8333984 C60.8332031,34.4524414 59.7139648,33.3332031 58.3333984,33.3332031 Z M59.1666016,44.1666016 C59.1666016,44.6269531 58.793457,45.0000977 58.3333984,45.0000977 L54.1666016,45.0000977 C53.706543,45.0000977 53.3334961,44.6269531 53.3334961,44.1666016 L53.3334961,35.8333984 C53.3334961,35.3729492 53.706543,34.9998047 54.1666016,34.9998047 L58.3333984,34.9998047 C58.793457,34.9998047 59.1666016,35.3729492 59.1666016,35.8333984 L59.1666016,44.1666016 Z M27.5,30.8333984 C24.7396484,30.8307617 22.5027344,28.593457 22.5000977,25.8334961 C22.5000977,23.0720703 24.7385742,20.8332031 27.5,20.8332031 C30.2614258,20.8332031 32.4999023,23.0720703 32.4999023,25.8334961 C32.4999023,28.5946289 30.2614258,30.8333984 27.5,30.8333984 Z M27.5,22.4998047 C25.6589844,22.4998047 24.1666992,23.9925781 24.1666992,25.8334961 C24.1666992,27.6741211 25.6589844,29.1667969 27.5,29.1667969 C29.3410156,29.1667969 30.8333008,27.6741211 30.8333008,25.8334961 C30.8333008,23.9925781 29.3410156,22.4998047 27.5,22.4998047 Z M38.3333984,25.8334961 C37.8729492,25.8334961 37.4998047,25.4600586 37.4998047,25 C37.4998047,24.5399414 37.8729492,24.1665039 38.3333984,24.1665039 L44.1667969,24.1665039 C44.6268555,24.1665039 44.9999023,24.5399414 44.9999023,25 C44.9999023,25.4600586 44.6268555,25.8334961 44.1667969,25.8334961 L38.3333984,25.8334961 Z M31.6667969,15.0001953 C31.2063477,15.0001953 30.8333008,14.6270508 30.8333008,14.1666016 L30.8333008,8.33320312 C30.8333008,7.87314453 31.2063477,7.50009766 31.6667969,7.50009766 C32.1268555,7.50009766 32.4999023,7.87314453 32.4999023,8.33320312 L32.4999023,14.1666016 C32.4999023,14.6270508 32.1268555,15.0001953 31.6667969,15.0001953 Z M49.1666992,25.8334961 C48.70625,25.8334961 48.3332031,25.4600586 48.3332031,25 C48.3332031,24.5399414 48.70625,24.1665039 49.1666992,24.1665039 L55.0001953,24.1665039 C55.4601562,24.1665039 55.8333008,24.5399414 55.8333008,25 C55.8333008,25.4600586 55.4601562,25.8334961 55.0001953,25.8334961 L49.1666992,25.8334961 Z"></path>
                </g>
            </g>
        </g>
    </g>
</svg>